<svg xmlns="http://www.w3.org/2000/svg" width="86.727" height="84.656" viewBox="0 0 86.727 84.656">
  <g id="Grupo_3861" data-name="Grupo 3861" transform="translate(-0.001 -0.004)">
    <path id="Caminho_22295" data-name="Caminho 22295" d="M365.143,177.376H341.774a2.011,2.011,0,0,0-2.009,2.009v51.938l-.268.082-5.733,1.756a1.072,1.072,0,0,1-1.338-.711l-17.053-55.7a1.072,1.072,0,0,1,.711-1.338l8.834-2.705,25.611-7.839,8.834-2.705a1.07,1.07,0,0,1,1.338.71l4.359,14.238Z" transform="translate(-310.084 -158.334)" fill="#f2f2f2"/>
    <path id="Caminho_22296" data-name="Caminho 22296" d="M336.34,152.688l-5.253-17.16a2.276,2.276,0,0,0-2.843-1.511l-12.42,3.8-25.61,7.841-12.421,3.8a2.279,2.279,0,0,0-1.511,2.843l17.955,58.645a2.28,2.28,0,0,0,2.177,1.611,2.248,2.248,0,0,0,.665-.1l8.514-2.606.268-.083v-.28l-.268.082L297,212.205a2.011,2.011,0,0,1-2.508-1.332L276.54,152.227a2.006,2.006,0,0,1,1.332-2.508l12.42-3.8,25.61-7.839,12.42-3.8a2.007,2.007,0,0,1,2.508,1.332l5.229,17.082.083.268h.279Z" transform="translate(-276.182 -133.913)" fill="#3f3d56"/>
    <path id="Caminho_22297" data-name="Caminho 22297" d="M379.906,163.055a1.207,1.207,0,0,1-1.153-.853l-1.725-5.634a1.205,1.205,0,0,1,.8-1.505l23.561-7.213a1.206,1.206,0,0,1,1.505.8l1.725,5.634a1.207,1.207,0,0,1-.8,1.505L380.258,163A1.2,1.2,0,0,1,379.906,163.055Z" transform="translate(-363.476 -145.934)" fill="#fe5000"/>
    <circle id="Elipse_578" data-name="Elipse 578" cx="2.678" cy="2.678" r="2.678" transform="translate(22.787 0.667)" fill="#fe5000"/>
    <circle id="Elipse_579" data-name="Elipse 579" cx="1.696" cy="1.696" r="1.696" transform="translate(23.769 1.649)" fill="#fff"/>
    <path id="Caminho_22298" data-name="Caminho 22298" d="M578.719,350.6H533.456a1.139,1.139,0,0,1-1.138-1.138V295.225a1.14,1.14,0,0,1,1.138-1.138h45.263a1.14,1.14,0,0,1,1.138,1.138V349.46A1.14,1.14,0,0,1,578.719,350.6Z" transform="translate(-498.017 -272.634)" fill="#e6e6e6"/>
    <path id="Caminho_22299" data-name="Caminho 22299" d="M526.283,274.087H498.095a2.28,2.28,0,0,0-2.276,2.277v54.61l.268-.082V276.364a2.011,2.011,0,0,1,2.009-2.009h28.272Zm24.573,0H498.095a2.28,2.28,0,0,0-2.276,2.277V337.7a2.28,2.28,0,0,0,2.276,2.277h52.762a2.28,2.28,0,0,0,2.276-2.277V276.364A2.28,2.28,0,0,0,550.856,274.087Zm2.009,63.609a2.011,2.011,0,0,1-2.009,2.009H498.095a2.011,2.011,0,0,1-2.009-2.009V276.364a2.011,2.011,0,0,1,2.009-2.009h52.762a2.011,2.011,0,0,1,2.009,2.009Z" transform="translate(-466.405 -255.313)" fill="#3f3d56"/>
    <path id="Caminho_22300" data-name="Caminho 22300" d="M634.663,264.39h-24.64a1.207,1.207,0,0,1-1.205-1.205v-5.892a1.207,1.207,0,0,1,1.205-1.205h24.64a1.207,1.207,0,0,1,1.205,1.205v5.892A1.206,1.206,0,0,1,634.663,264.39Z" transform="translate(-564.273 -239.723)" fill="#fe5000"/>
    <circle id="Elipse_580" data-name="Elipse 580" cx="2.678" cy="2.678" r="2.678" transform="translate(55.392 11.409)" fill="#fe5000"/>
    <circle id="Elipse_581" data-name="Elipse 581" cx="1.631" cy="1.631" r="1.631" transform="translate(56.439 12.456)" fill="#fff"/>
  </g>
</svg>
