<svg xmlns="http://www.w3.org/2000/svg" width="12.115" height="15.75" viewBox="0 0 12.115 15.75">
  <path id="fire" d="M18.158,12.356c-.165-.392-.353-.836-.535-1.384-.479-1.435,1.051-3,1.065-3.015L17.832,7.1c-.085.085-2.074,2.107-1.358,4.254.2.592.4,1.06.568,1.472a5.683,5.683,0,0,1,.612,2.577,3.78,3.78,0,0,1-2.538,3.207,5.161,5.161,0,0,0-1.274-4.846l-.633-.633-.353.822a8.675,8.675,0,0,1-3.214,4.2A3.54,3.54,0,0,1,7.962,15.4a5.83,5.83,0,0,1,.563-2.2,6.865,6.865,0,0,0,.649-2.648V9.481c.529.218,1.212.789,1.212,2.288v1.577l1.056-1.172a5.56,5.56,0,0,0,.731-6.244,2.718,2.718,0,0,1,1.848,2.81h1.212A4.088,4.088,0,0,0,10.99,4.5H9.779l.727.969c.083.112,1.734,2.379.82,4.657A2.994,2.994,0,0,0,8.567,8.135H7.962v2.423a5.83,5.83,0,0,1-.563,2.2A6.865,6.865,0,0,0,6.75,15.4c0,2.331,2.316,4.846,6.058,4.846s6.058-2.515,6.058-4.846A6.892,6.892,0,0,0,18.158,12.356Zm-7.268,6.4a9.994,9.994,0,0,0,2.645-3.391,3.7,3.7,0,0,1,.156,3.617,6.858,6.858,0,0,1-.884.061A6.256,6.256,0,0,1,10.89,18.751Z" transform="translate(-6.75 -4.5)"/>
</svg>
