<svg xmlns="http://www.w3.org/2000/svg" width="17.326" height="14.279" viewBox="0 0 17.326 14.279">
  <g id="ic-sport-winner" transform="translate(-2.25 -5.25)">
    <path id="Caminho_362" data-name="Caminho 362" d="M9.176,6H14.1a.2.2,0,0,1,.176.213V18.779H9V6.213A.2.2,0,0,1,9.176,6Z" transform="translate(-0.725 0)" fill="none" stroke="#000" stroke-linecap="round" stroke-linejoin="round" stroke-width="1.5"/>
    <path id="Caminho_363" data-name="Caminho 363" d="M0,0H5.1a.2.2,0,0,1,.176.213V7.242a.2.2,0,0,1-.176.213H0Z" transform="translate(8.275 18.779) rotate(180)" fill="none" stroke="#000" stroke-linecap="round" stroke-linejoin="round" stroke-width="1.5"/>
    <path id="Caminho_364" data-name="Caminho 364" d="M.176,0h5.1V5.325H.176A.2.2,0,0,1,0,5.112V.213A.2.2,0,0,1,.176,0Z" transform="translate(18.826 18.779) rotate(180)" fill="none" stroke="#000" stroke-linecap="round" stroke-linejoin="round" stroke-width="1.5"/>
  </g>
</svg>
